<?xml version="1.0" standalone="no"?>
<!DOCTYPE svg PUBLIC "-//W3C//DTD SVG 20010904//EN"
 "http://www.w3.org/TR/2001/REC-SVG-20010904/DTD/svg10.dtd">
<svg version="1.0" xmlns="http://www.w3.org/2000/svg"
 width="158.000000pt" height="158.000000pt" viewBox="0 0 158.000000 158.000000"
 preserveAspectRatio="xMidYMid meet">
<metadata>
Created by potrace 1.11, written by Peter Selinger 2001-2013
</metadata>
<g transform="translate(0.000000,158.000000) scale(0.100000,-0.100000)"
fill="#000000" stroke="none">
<path d="M648 1289 c-172 -35 -277 -93 -403 -223 -93 -96 -152 -202 -178 -321
-2 -5 -5 -14 -8 -20 -3 -5 -7 -67 -8 -136 -3 -123 -2 -126 24 -157 14 -17 54
-45 88 -62 65 -31 226 -75 312 -85 28 -3 75 -8 105 -12 30 -3 134 -6 230 -5
161 1 268 13 434 47 63 13 183 67 221 99 l40 34 0 113 c0 131 -7 178 -39 263
-52 137 -117 226 -246 335 -33 28 -164 98 -199 106 -9 2 -41 11 -71 20 -78 23
-204 24 -302 4z"/>
</g>
</svg>
